<svg width="419" height="477" viewBox="0 0 419 477" fill="none" xmlns="http://www.w3.org/2000/svg">
<path d="M175 19H316L325.5 22L344.5 31.5L357 44.5L360.5 64L353.5 85H186.5L134 110L101 160L94.5 202L103.5 252.5L134 292L162.5 308L233 313L278.5 304L266 279V252.5L278.5 218.5L305.5 213.5L334.5 218.5L352 238L357.5 279L346.5 353L341.5 381L326 406L299.5 432.5L272.5 454.5L233 466L210 462L192.5 447.5L187.5 429L195 411.5L229 399.5L258.5 392.5V383L216 381L158 374L103.5 354.5L58 313L30 269.5L17.5 221L19.5 163.5L35 117.5L68.5 70.5L115.5 35L175 19Z" fill="#6255E8"/>
<path d="M253.081 394.987C256.94 395.219 260.256 392.278 260.487 388.419C260.719 384.56 257.778 381.244 253.919 381.013L253.081 394.987ZM203.5 385L202.963 391.979L203.022 391.984L203.081 391.987L203.5 385ZM184 383.5L183.037 390.433L183.249 390.463L183.463 390.479L184 383.5ZM166 381L164.588 387.856L164.811 387.902L165.037 387.933L166 381ZM149 377.5L146.786 384.141L147.181 384.272L147.588 384.356L149 377.5ZM135.5 373L132.94 379.515L133.112 379.583L133.286 379.641L135.5 373ZM121.5 367.5L118.793 373.955L118.866 373.986L118.94 374.015L121.5 367.5ZM106 361L102.485 367.053L102.876 367.28L103.293 367.455L106 361ZM90.5 352L85.8905 357.268L86.3998 357.714L86.9851 358.053L90.5 352ZM78.5 341.5L73.5502 346.45C73.6601 346.56 73.7735 346.666 73.8905 346.768L78.5 341.5ZM60 323L54.7102 327.584L54.8737 327.773L55.0502 327.95L60 323ZM47 308L41.123 311.803L41.3892 312.214L41.7102 312.584L47 308ZM36 291L29.7013 294.054L29.8891 294.441L30.123 294.803L36 291ZM28 274.5L21.6443 277.433L21.6722 277.494L21.7013 277.554L28 274.5ZM22 261.5L15.313 263.57L15.45 264.013L15.6443 264.433L22 261.5ZM15.5001 240.5L8.52684 241.112L8.59213 241.856L8.81305 242.57L15.5001 240.5ZM13.0001 212L6.00007 212L6.00007 212.306L6.02684 212.612L13.0001 212ZM13.0001 195.5L6.04106 194.744L6.00007 195.121L6.00007 195.5L13.0001 195.5ZM15.5001 172.5L8.57332 171.49L8.55486 171.616L8.54104 171.744L15.5001 172.5ZM19.0001 148.5L12.4138 146.129L12.1751 146.792L12.0733 147.49L19.0001 148.5ZM28 123.5L21.8275 120.198L21.5867 120.649L21.4138 121.129L28 123.5ZM39.5001 102L33.7447 98.0155L33.5166 98.345L33.3276 98.6984L39.5001 102ZM57.5001 76L52.6788 70.925L52.1556 71.4221L51.7447 72.0155L57.5001 76ZM85.6974 49.2125L90.5187 54.2875L90.5187 54.2875L85.6974 49.2125ZM89.6672 46.281L86.2353 40.18L86.2352 40.18L89.6672 46.281ZM111.5 34L108.884 27.5074L108.463 27.6768L108.068 27.899L111.5 34ZM145 20.5L143.384 13.6891L142.872 13.8106L142.384 14.0074L145 20.5ZM174.5 13.5L174.404 6.50065L173.634 6.51121L172.884 6.68912L174.5 13.5ZM211 13L211 5.99999L210.952 5.99999L210.904 6.00065L211 13ZM308 13L309.026 6.07556L308.516 5.99998L308 5.99998L308 13ZM319.555 14.7119L318.53 21.6363L318.53 21.6363L319.555 14.7119ZM323.351 15.6611L325.706 9.06895L325.706 9.06895L323.351 15.6611ZM335.5 20L339.258 14.0944L338.595 13.6722L337.854 13.4078L335.5 20ZM346.5 27L350.838 21.5058L350.558 21.2853L350.258 21.0943L346.5 27ZM356 34.5L361.735 30.4857L361.145 29.6431L360.337 29.0058L356 34.5ZM363 44.5L369.741 42.6126L369.419 41.4634L368.735 40.4857L363 44.5ZM366.5 57L373.5 57L373.5 56.0385L373.241 55.1126L366.5 57ZM366.5 68L373.03 70.5228L373.5 69.3052L373.5 68L366.5 68ZM351.47 87.4772C350.077 91.0834 351.871 95.1363 355.477 96.5296C359.083 97.9229 363.136 96.129 364.53 92.5228L351.47 87.4772ZM253.919 381.013L203.919 378.013L203.081 391.987L253.081 394.987L253.919 381.013ZM204.037 378.021L184.537 376.521L183.463 390.479L202.963 391.979L204.037 378.021ZM184.963 376.567L166.963 374.067L165.037 387.933L183.037 390.433L184.963 376.567ZM167.412 374.144L150.412 370.644L147.588 384.356L164.588 387.856L167.412 374.144ZM151.214 370.859L137.714 366.359L133.286 379.641L146.786 384.141L151.214 370.859ZM138.06 366.485L124.06 360.985L118.94 374.015L132.94 379.515L138.06 366.485ZM124.207 361.045L108.707 354.545L103.293 367.455L118.793 373.955L124.207 361.045ZM109.515 354.946L94.0149 345.946L86.9851 358.053L102.485 367.053L109.515 354.946ZM95.1095 346.732L83.1095 336.232L73.8905 346.768L85.8905 357.268L95.1095 346.732ZM83.4497 336.55L64.9497 318.05L55.0502 327.95L73.5502 346.45L83.4497 336.55ZM65.2898 318.415L52.2898 303.415L41.7102 312.584L54.7102 327.584L65.2898 318.415ZM52.877 304.197L41.877 287.197L30.123 294.803L41.123 311.803L52.877 304.197ZM42.2987 287.946L34.2987 271.446L21.7013 277.554L29.7013 294.054L42.2987 287.946ZM34.3557 271.567L28.3557 258.567L15.6443 264.433L21.6443 277.433L34.3557 271.567ZM28.687 259.43L22.1871 238.43L8.81305 242.57L15.313 263.57L28.687 259.43ZM22.4733 239.888L19.9733 211.388L6.02684 212.612L8.52684 241.112L22.4733 239.888ZM20.0001 212L20.0001 195.5L6.00007 195.5L6.00007 212L20.0001 212ZM19.9591 196.256L22.4591 173.256L8.54104 171.744L6.04106 194.744L19.9591 196.256ZM22.4268 173.51L25.9268 149.51L12.0733 147.49L8.57332 171.49L22.4268 173.51ZM25.5863 150.871L34.5862 125.871L21.4138 121.129L12.4138 146.129L25.5863 150.871ZM34.1725 126.802L45.6725 105.302L33.3276 98.6984L21.8275 120.198L34.1725 126.802ZM45.2554 105.984L63.2554 79.9844L51.7447 72.0155L33.7447 98.0155L45.2554 105.984ZM62.3213 81.075L90.5187 54.2875L80.8762 44.1375L52.6788 70.925L62.3213 81.075ZM93.099 52.382L114.932 40.101L108.068 27.899L86.2353 40.18L93.099 52.382ZM114.116 40.4926L147.616 26.9926L142.384 14.0074L108.884 27.5074L114.116 40.4926ZM146.616 27.3109L176.116 20.3109L172.884 6.68912L143.384 13.6891L146.616 27.3109ZM174.596 20.4993L211.096 19.9993L210.904 6.00065L174.404 6.50065L174.596 20.4993ZM211 20L308 20L308 5.99998L211 5.99999L211 20ZM306.974 19.9244L318.53 21.6363L320.581 7.7875L309.026 6.07556L306.974 19.9244ZM320.997 22.2533L333.146 26.5922L337.854 13.4078L325.706 9.06895L320.997 22.2533ZM331.742 25.9056L342.742 32.9056L350.258 21.0943L339.258 14.0944L331.742 25.9056ZM342.162 32.4942L351.662 39.9942L360.337 29.0058L350.838 21.5058L342.162 32.4942ZM350.265 38.5142L357.265 48.5142L368.735 40.4857L361.735 30.4857L350.265 38.5142ZM356.259 46.3874L359.759 58.8874L373.241 55.1126L369.741 42.6126L356.259 46.3874ZM359.5 57L359.5 68L373.5 68L373.5 57L359.5 57ZM359.97 65.4772L351.47 87.4772L364.53 92.5228L373.03 70.5228L359.97 65.4772ZM318.53 21.6363C319.37 21.7609 320.197 21.9675 320.997 22.2533L325.706 9.06895C324.043 8.47535 322.327 8.04614 320.581 7.78749L318.53 21.6363ZM90.5187 54.2875C91.2968 53.5483 92.1635 52.9083 93.0991 52.382L86.2352 40.18C84.2925 41.2729 82.4924 42.6021 80.8761 44.1375L90.5187 54.2875Z" fill="#3624FA"/>
<rect x="272.5" y="97.5" width="79" height="31" fill="#FEFBEC" stroke="black"/>
<mask id="path-4-inside-1_4_6" fill="white">
<path d="M352 129C352 137.487 347.786 145.626 340.284 151.627C332.783 157.629 322.609 161 312 161C301.391 161 291.217 157.629 283.716 151.627C276.214 145.626 272 137.487 272 129L312 129H352Z"/>
</mask>
<path d="M352 129C352 137.487 347.786 145.626 340.284 151.627C332.783 157.629 322.609 161 312 161C301.391 161 291.217 157.629 283.716 151.627C276.214 145.626 272 137.487 272 129L312 129H352Z" fill="#FEFBEC" stroke="black" stroke-width="2" mask="url(#path-4-inside-1_4_6)"/>
<path d="M187.5 97.5H271.5V128.5H229.5H187.5V97.5Z" fill="#FEFBEC" stroke="black"/>
<path d="M148 160.5H147.95L147.902 160.51C143.664 161.357 138.805 160.394 134.003 158.315C129.209 156.238 124.52 153.067 120.648 149.567C116.771 146.062 113.746 142.256 112.245 138.927C111.494 137.263 111.141 135.751 111.223 134.474C111.303 133.216 111.805 132.174 112.807 131.395C129.184 118.657 162.414 101.607 183.885 94.0699C185.944 95.9539 187.14 97.8433 187.79 99.8554C188.465 101.946 188.562 104.206 188.376 106.794C188.246 108.611 187.98 110.559 187.687 112.709C187.56 113.635 187.429 114.598 187.301 115.605C186.878 118.933 186.5 122.69 186.5 127C186.5 135.349 181.018 143.721 173.394 150.035C165.776 156.345 156.135 160.5 148 160.5Z" fill="#FEFBEC" stroke="black"/>
<path d="M417.5 124V124.065L417.516 124.127C418.121 126.424 418.085 128.455 417.544 130.271C417.002 132.09 415.944 133.724 414.459 135.209C411.491 138.176 406.859 140.513 401.412 142.5C396.386 142.491 394.186 141.741 392.989 140.741C392.388 140.239 392.007 139.649 391.645 138.968C391.549 138.787 391.452 138.595 391.352 138.396C391.096 137.889 390.816 137.334 390.462 136.792C389.743 134.12 389.533 131.277 390.709 128.574C391.892 125.852 394.523 123.177 399.697 120.96L399.731 120.945L399.762 120.926C402.881 119.006 407.374 118.502 411.099 119.171C412.957 119.505 414.581 120.123 415.728 120.964C416.868 121.8 417.5 122.825 417.5 124Z" fill="#292929" stroke="#292929"/>
<path d="M396.015 171.911H396.079L396.142 171.895C400.344 170.789 403.593 170.588 406.759 171.833C409.915 173.074 413.067 175.782 417 180.676C417 182.874 416.998 184.479 416.938 185.696C416.876 186.95 416.753 187.738 416.534 188.308C416.324 188.851 416.015 189.222 415.507 189.615C415.113 189.92 414.627 190.218 413.99 190.61C413.777 190.74 413.547 190.881 413.298 191.037C410.904 191.674 406.787 192 402.782 191.037C398.748 190.066 394.89 187.806 392.96 183.303L392.945 183.269L392.926 183.238C391.201 180.435 390.883 177.561 391.543 175.424C392.198 173.302 393.801 171.911 396.015 171.911Z" fill="#292929" stroke="#292929"/>
<path d="M185 253.5C141 215 132.5 233.5 121 250.5C112.5 259.5 115.5 260 105 221C96.5 211 106.5 198.5 123 195.5C158 188 200.5 265.5 185 253.5Z" fill="#FE5A50"/>
<path d="M214.5 230C197.5 234 193 247 187.5 261C181.837 255.337 151 202.5 172.5 197.5C175 196.5 178.5 196.5 182 196.5C184 197.5 205 196.5 214.5 230Z" fill="#FE5A50"/>
<path d="M186.5 262C186.5 272.307 186.701 279.956 186.849 285.616C186.867 286.275 186.883 286.907 186.899 287.513C187.048 293.356 187.09 296.721 186.698 298.65C186.504 299.603 186.221 300.113 185.872 300.406C185.525 300.699 185.029 300.846 184.239 300.875C183.52 300.902 182.638 300.832 181.518 300.742C181.399 300.732 181.278 300.722 181.154 300.713C179.872 300.611 178.333 300.5 176.5 300.5C171.704 300.5 165.486 298.701 158.825 295.686C152.176 292.677 145.132 288.477 138.695 283.725C132.256 278.972 126.441 273.678 122.241 268.485C118.055 263.31 115.535 258.31 115.5 254.087C115.638 253.708 115.774 253.33 115.91 252.953C117.749 247.852 119.517 242.946 123.539 238.981C127.859 234.721 134.848 231.497 147.52 230.5C157.201 230.505 166.96 234.046 174.295 239.767C181.636 245.493 186.5 253.36 186.5 262Z" fill="#FEFBEC" stroke="black"/>
<path d="M255.508 261.909L255.482 262.054L255.538 262.19C261.41 276.447 264.25 286.083 264.849 292.522C265.148 295.739 264.882 298.116 264.189 299.86C263.502 301.588 262.386 302.721 260.911 303.447C259.42 304.181 257.542 304.51 255.331 304.571C253.123 304.632 250.622 304.426 247.908 304.12C246.688 303.982 245.424 303.824 244.128 303.662C239.68 303.106 234.84 302.5 230 302.5H229.929L229.86 302.52C219.121 305.642 210.382 307.536 203.454 307.962C196.518 308.389 191.479 307.339 188.058 304.668C184.649 302.008 182.743 297.654 182.264 291.221C181.786 284.791 182.74 276.358 184.981 265.641C188.473 256.416 191.488 249.535 194.479 244.417C197.471 239.295 200.422 235.966 203.77 233.819C207.115 231.673 210.901 230.679 215.618 230.305C220.345 229.93 225.967 230.181 232.977 230.499C243.97 230.999 251.063 232.06 255.48 233.643C257.684 234.432 259.189 235.341 260.18 236.345C261.162 237.34 261.658 238.449 261.817 239.688C261.977 240.942 261.794 242.348 261.379 243.926C260.964 245.503 260.327 247.217 259.604 249.085C259.476 249.416 259.345 249.751 259.213 250.091C257.857 253.573 256.315 257.531 255.508 261.909Z" fill="#FEFBEC" stroke="black"/>
<path d="M314.5 208L316.511 201.295L315.527 201L314.5 201L314.5 208ZM334.5 214L338.798 208.475L337.765 207.671L336.511 207.295L334.5 214ZM264 283L257.209 284.698L257.32 285.141L257.487 285.566L264 283ZM357 326L363.891 327.231C363.911 327.118 363.929 327.004 363.943 326.89L357 326ZM352 354L358.827 355.546L358.863 355.389L358.891 355.231L352 354ZM346 380.5L352.125 383.888L352.607 383.017L352.827 382.046L346 380.5ZM333 404L338.387 408.47L338.807 407.964L339.125 407.388L333 404ZM313.5 427.5L318.073 432.8L318.514 432.419L318.887 431.97L313.5 427.5ZM288 449.5L291.448 455.592L292.049 455.251L292.573 454.8L288 449.5ZM261.5 464.5L263.291 471.267L264.163 471.036L264.948 470.592L261.5 464.5ZM359.5 250.5L366.459 249.748L366.416 249.344L366.326 248.949L359.5 250.5ZM361.5 269L368.5 269L368.5 268.623L368.459 268.248L361.5 269ZM361.5 287.5L368.461 288.233L368.5 287.867L368.5 287.5L361.5 287.5ZM359.5 306.5L366.443 307.39L366.453 307.312L366.461 307.233L359.5 306.5ZM343.5 221L348.288 215.893L348.052 215.673L347.798 215.475L343.5 221ZM351.5 228.5L357.761 225.37L357.201 224.25L356.288 223.393L351.5 228.5ZM357 239.5L363.826 237.949L363.639 237.125L363.261 236.37L357 239.5ZM244.5 469L244.7 475.997L245.509 475.974L246.291 475.767L244.5 469ZM227 469.5L226.095 476.441L226.645 476.513L227.2 476.497L227 469.5ZM215.5 468L213.378 474.671L213.974 474.86L214.595 474.941L215.5 468ZM204.5 464.5L200.85 470.473L201.572 470.914L202.378 471.171L204.5 464.5ZM195.5 459L190.37 463.763L191.027 464.47L191.85 464.973L195.5 459ZM290.5 210.5L289.072 203.647L287.885 203.895L286.85 204.527L290.5 210.5ZM302.5 208L302.5 201L301.779 201L301.072 201.147L302.5 208ZM274.5 221.5L270.175 215.996L269.387 216.615L268.804 217.431L274.5 221.5ZM281.5 216L277.85 210.027L277.499 210.242L277.175 210.496L281.5 216ZM266 235.5L259.739 232.37L259.647 232.553L259.566 232.743L266 235.5ZM269.5 228.5L263.804 224.431L263.485 224.878L263.239 225.37L269.5 228.5ZM261.5 250.5L254.62 249.21L254.538 249.646L254.512 250.089L261.5 250.5ZM263 242.5L256.566 239.743L256.262 240.452L256.12 241.21L263 242.5ZM261.5 267L268.486 266.563L268.486 266.563L261.5 267ZM261 259L254.012 258.589L253.987 259.013L254.014 259.437L261 259ZM262 275L255.014 275.437L255.054 276.076L255.209 276.698L262 275ZM189 452L182.739 455.131L183.188 456.028L183.87 456.763L189 452ZM184.5 443L177.636 444.373L177.82 445.292L178.239 446.131L184.5 443ZM183 435.5L176 435.5L176 436.193L176.136 436.873L183 435.5ZM183 429.5L176.07 428.51L176 429.003L176 429.5L183 429.5ZM184.5 419L178.127 416.103L177.712 417.017L177.57 418.01L184.5 419ZM187 413.5L181.475 409.202L180.969 409.853L180.627 410.603L187 413.5ZM190.5 409L185.944 403.685L185.408 404.145L184.975 404.702L190.5 409ZM194 406L190.725 399.813L190.036 400.178L189.444 400.685L194 406ZM202.5 401.5L200.441 394.81L199.809 395.004L199.225 395.313L202.5 401.5ZM215.5 397.5L213.719 390.73L213.579 390.767L213.441 390.81L215.5 397.5ZM225 395L223.366 388.193L223.292 388.211L223.219 388.23L225 395ZM237.5 392L239.134 398.807L239.166 398.799L239.198 398.791L237.5 392ZM255.198 394.791C258.948 393.853 261.229 390.053 260.291 386.302C259.353 382.552 255.553 380.271 251.802 381.209L255.198 394.791ZM312.488 214.705L332.488 220.705L336.511 207.295L316.511 201.295L312.488 214.705ZM277.013 296.934L270.513 280.434L257.487 285.566L263.987 302.066L277.013 296.934ZM350.109 324.769L345.109 352.769L358.891 355.231L363.891 327.231L350.109 324.769ZM345.173 352.454L339.173 378.954L352.827 382.046L358.827 355.546L345.173 352.454ZM339.875 377.112L326.875 400.612L339.125 407.388L352.125 383.888L339.875 377.112ZM327.613 399.53L308.113 423.03L318.887 431.97L338.387 408.47L327.613 399.53ZM308.927 422.2L283.427 444.2L292.573 454.8L318.073 432.8L308.927 422.2ZM284.552 443.408L258.052 458.408L264.948 470.592L291.448 455.592L284.552 443.408ZM352.54 251.252L354.541 269.752L368.459 268.248L366.459 249.748L352.54 251.252ZM354.5 269L354.5 287.5L368.5 287.5L368.5 269L354.5 269ZM354.538 286.767L352.538 305.767L366.461 307.233L368.461 288.233L354.538 286.767ZM352.557 305.61L350.057 325.11L363.943 326.89L366.443 307.39L352.557 305.61ZM330.202 219.526L339.202 226.526L347.798 215.475L338.798 208.475L330.202 219.526ZM338.712 226.107L346.712 233.607L356.288 223.393L348.288 215.893L338.712 226.107ZM345.239 231.631L350.739 242.631L363.261 236.37L357.761 225.37L345.239 231.631ZM350.174 241.051L352.674 252.051L366.326 248.949L363.826 237.949L350.174 241.051ZM259.709 457.733L242.709 462.233L246.291 475.767L263.291 471.267L259.709 457.733ZM244.3 462.003L226.8 462.503L227.2 476.497L244.7 475.997L244.3 462.003ZM227.905 462.559L216.405 461.059L214.595 474.941L226.095 476.441L227.905 462.559ZM217.622 461.33L206.622 457.83L202.378 471.171L213.378 474.671L217.622 461.33ZM208.15 458.527L199.15 453.027L191.85 464.973L200.85 470.473L208.15 458.527ZM291.928 217.353L303.928 214.853L301.072 201.147L289.072 203.647L291.928 217.353ZM302.5 215L314.5 215L314.5 201L302.5 201L302.5 215ZM278.825 227.004L285.825 221.504L277.175 210.496L270.175 215.996L278.825 227.004ZM285.15 221.973L294.15 216.473L286.85 204.527L277.85 210.027L285.15 221.973ZM272.261 238.631L275.761 231.631L263.239 225.37L259.739 232.37L272.261 238.631ZM275.196 232.569L280.196 225.569L268.804 217.431L263.804 224.431L275.196 232.569ZM268.38 251.79L269.88 243.79L256.12 241.21L254.62 249.21L268.38 251.79ZM269.434 245.257L272.434 238.257L259.566 232.743L256.566 239.743L269.434 245.257ZM268.486 266.563L267.986 258.563L254.014 259.437L254.514 267.437L268.486 266.563ZM267.988 259.411L268.488 250.911L254.512 250.089L254.012 258.589L267.988 259.411ZM270.791 281.302L268.791 273.302L255.209 276.698L257.209 284.698L270.791 281.302ZM268.986 274.563L268.486 266.563L254.514 267.437L255.014 275.437L268.986 274.563ZM200.63 454.237L194.13 447.237L183.87 456.763L190.37 463.763L200.63 454.237ZM195.261 448.87L190.761 439.87L178.239 446.131L182.739 455.131L195.261 448.87ZM191.364 441.627L189.864 434.127L176.136 436.873L177.636 444.373L191.364 441.627ZM190 435.5L190 429.5L176 429.5L176 435.5L190 435.5ZM189.93 430.49L191.43 419.99L177.57 418.01L176.07 428.51L189.93 430.49ZM190.873 421.897L193.373 416.397L180.627 410.603L178.127 416.103L190.873 421.897ZM192.525 417.798L196.025 413.298L184.975 404.702L181.475 409.202L192.525 417.798ZM195.056 414.315L198.556 411.315L189.444 400.685L185.944 403.685L195.056 414.315ZM197.275 412.187L205.775 407.687L199.225 395.313L190.725 399.813L197.275 412.187ZM204.559 408.19L217.559 404.19L213.441 390.81L200.441 394.81L204.559 408.19ZM217.281 404.27L226.781 401.77L223.219 388.23L213.719 390.73L217.281 404.27ZM226.634 401.807L239.134 398.807L235.866 385.193L223.366 388.193L226.634 401.807ZM239.198 398.791L255.198 394.791L251.802 381.209L235.802 385.209L239.198 398.791Z" fill="#3624FA"/>
<path d="M283.5 293L273.5 301L265 305L255.5 307H199L173 305L159.5 301L144.5 293L135.75 286.5L127 280L119 271L115 264.5L109.5 256L106.5 247.5L102 227.5L100 204V181.5L102 167L106.5 152L115 134L129.5 117L142.5 106L156 99L171.5 93.5L187 91H359" stroke="#292929" stroke-width="12" stroke-linecap="round" stroke-linejoin="round"/>
<path d="M174.424 213.976C174.424 219.42 174.849 220 170.364 220C165.879 220 153.543 217.23 153.543 211.786C149.483 205.762 169.94 197 174.424 197C178.909 197 174.424 208.532 174.424 213.976Z" fill="#FE5A50"/>
<mask id="path-16-inside-2_4_6" fill="white">
<path d="M272 129C272 137.487 267.522 145.626 259.552 151.627C251.582 157.629 240.772 161 229.5 161C218.228 161 207.418 157.629 199.448 151.627C191.478 145.626 187 137.487 187 129L229.5 129H272Z"/>
</mask>
<path d="M272 129C272 137.487 267.522 145.626 259.552 151.627C251.582 157.629 240.772 161 229.5 161C218.228 161 207.418 157.629 199.448 151.627C191.478 145.626 187 137.487 187 129L229.5 129H272Z" fill="#FEFBEC" stroke="black" stroke-width="2" stroke-linecap="square" mask="url(#path-16-inside-2_4_6)"/>
<line x1="271" y1="129" x2="188" y2="129" stroke="#FEFBEC" stroke-width="2"/>
<line x1="351" y1="129" x2="273" y2="129" stroke="#FEFBEC" stroke-width="2"/>
</svg>
