<svg xmlns="http://www.w3.org/2000/svg" xml:space="preserve" width="1500" height="250" data-id="lg_498I3s6ABKNBabIESO" data-version="1"><g data-padding="20"><g transform="translate(10 5.531)scale(.95575)"><path fill="#e9e9e9" d="M587.68 169.431q-17.24 0-26.29-8.43t-9.05-24.3q0-12.53 3.41-22.76t9.98-17.54q6.57-7.32 16-11.16 9.42-3.85 21.2-3.85 16.24 0 25.79 6.26 9.55 6.27 9.55 18.29 0 3.1-.5 5.96h-12.02q.37-2.24.37-4.1 0-8.18-5.95-12.27-5.96-4.09-16.5-4.09-14.63 0-24.24 7.5t-13.08 21.26q-1.74 7.2-1.74 15.38 0 12.52 5.96 18.17 5.95 5.64 17.85 5.64 9.67 0 16.99-3.29 7.32-3.28 11.53-8.8 4.22-5.52 4.96-12.09l.13-1.24h-30.01l1.86-10.29h41.79l-7.82 44.26h-8.92v-10.41q-11.54 11.9-31.25 11.9m99.83-.12q-17.36 0-27.1-8.74-9.73-8.75-9.73-24.37 0-4.96 1.12-11.9 3.34-20.84 15.99-31.93 12.65-11.1 32.99-11.1 17.48 0 27.28 8.68 9.79 8.68 9.79 24.18 0 4.96-1.11 11.9-3.48 20.96-16.19 32.12t-33.04 11.16m0-10.17q15.62 0 24.8-8.62 9.17-8.62 12.52-26.22.87-4.47.87-10.17 0-10.79-6.51-16.8-6.51-6.02-18.04-6.02-15.75 0-24.93 8.56-9.17 8.55-12.52 26.16-.87 4.47-.87 10.17 0 10.79 6.51 16.86 6.51 6.08 18.17 6.08m89.02 10.29q-15.13 0-24.3-4.96-9.18-4.96-9.18-15.75 0-4.34.99-7.31h11.66q-.99 3.35-.99 5.33 0 6.2 5.51 9.42 5.52 3.23 14.95 3.23 12.27 0 19.46-4.09 7.2-4.1 7.2-11.54 0-4.09-2.86-6.82-2.85-2.72-7.13-4.4-4.27-1.67-11.59-3.78-8.93-2.48-14.57-4.84-5.64-2.35-9.55-6.69-3.9-4.34-3.9-11.29 0-8.06 4.89-13.57 4.9-5.52 12.9-8.25t17.17-2.73q14.26 0 22.76 4.78 8.49 4.77 8.49 14.57 0 2.97-.62 6.07h-11.53q.5-1.86.5-3.84 0-5.46-5.03-8.5-5.02-3.03-13.45-3.03-10.42 0-17.11 3.34-6.7 3.35-6.7 9.8 0 3.84 2.79 6.45 2.79 2.6 7.01 4.21 4.21 1.62 11.41 3.6 9.17 2.6 14.81 4.96 5.65 2.36 9.68 6.76t4.03 11.47q0 9.42-5.27 15.56t-13.83 8.99-18.6 2.85m82.72 0q-15.13 0-24.31-4.96-9.17-4.96-9.17-15.75 0-4.34.99-7.31h11.66q-1 3.35-1 5.33 0 6.2 5.52 9.42 5.52 3.23 14.94 3.23 12.28 0 19.47-4.09 7.19-4.1 7.19-11.54 0-4.09-2.85-6.82-2.85-2.72-7.13-4.4-4.28-1.67-11.59-3.78-8.93-2.48-14.57-4.84-5.64-2.35-9.55-6.69t-3.91-11.29q0-8.06 4.9-13.57 4.9-5.52 12.9-8.25t17.17-2.73q14.26 0 22.76 4.78 8.49 4.77 8.49 14.57 0 2.97-.62 6.07h-11.53q.49-1.86.49-3.84 0-5.46-5.02-8.5-5.02-3.03-13.45-3.03-10.42 0-17.11 3.34-6.7 3.35-6.7 9.8 0 3.84 2.79 6.45 2.79 2.6 7.01 4.21 4.21 1.62 11.4 3.6 9.18 2.6 14.82 4.96t9.67 6.76 4.03 11.47q0 9.42-5.27 15.56t-13.82 8.99q-8.56 2.85-18.6 2.85"/><rect width="452" height="140.12" x="82.569" y="-345.129" fill="none" rx="0" ry="0" transform="translate(465.69 400.5)"/><path fill="#e9e9e9" d="M999.28 178.471c-1.65-8.25-5.28-19.8-7.26-22.77-1.32-2.64-11.55-35.31-12.54-38.28 0 0-3.3-9.9-9.57-12.21-1.65-.66-3.96-.33-5.94.33-1.32-3.96-3.3-7.59-5.28-8.58-1.65-.99-4.29-1.32-6.6-.99-1.98-4.62-7.59-7.92-13.2-11.88-6.27-3.96-13.2-8.25-13.86-13.2-2.31-15.51-5.61-24.09-9.57-32.34-29.04-58.41-87.12-33.33-87.45-33-1.65.66-2.31 2.64-1.65 4.29s2.64 2.31 4.29 1.65c1.98-.99 52.8-22.77 78.87 29.7 3.63 7.59 6.6 15.51 9.24 30.36 1.32 7.92 9.57 13.2 16.83 17.82 2.64 1.65 5.28 3.3 7.59 5.28-1.65.33-3.3.66-4.95 1.65-.99.66-1.98 1.65-2.64 2.97-2.64-.66-5.61 0-7.59 1.65-2.31 1.65-3.96 4.62-4.29 8.25-.33 1.98-.66 5.94-1.32 9.57-.99 6.6-1.98 14.19-1.98 18.81v4.95c-2.97-2.64-6.93-4.95-9.9-5.28-3.96-.66-7.26.33-9.24 2.64-.99 1.32-2.64 3.96-.99 8.25.66 1.65.99 3.96 1.65 7.59 1.32 5.94 3.3 14.85 6.93 28.38-2.64.66-6.6 1.65-10.23 2.64-10.56 3.3-17.82 14.19-17.82 25.74.33 14.52-6.27 32.01-6.27 32.01-.66 1.65.33 3.63 1.98 4.29.33 0 .66.33 1.32.33 1.32 0 2.64-.66 2.97-1.98.33-.66 6.93-18.81 6.93-34.65 0-8.58 5.61-17.16 13.2-19.47 3.3-.99 7.59-1.98 9.9-2.64 6.93 22.44 16.83 30.03 23.1 34.65.99.66 1.65 1.32 2.31 1.65 2.64 2.31 2.31 12.87.99 19.47-.33 1.65.99 3.63 2.64 3.96h.66c1.65 0 2.97-.99 3.3-2.64.66-3.3 3.3-20.13-3.3-25.74-.66-.66-1.65-1.32-2.64-1.98-5.94-4.62-14.85-11.22-21.12-32.34-4.62-16.17-6.93-26.4-8.25-33-.66-3.96-1.32-6.27-1.98-8.25-.33-.99-.33-1.65 0-1.65.33-.33 1.32-.66 2.97-.33 3.96.66 9.9 5.94 9.9 8.91-.33 1.98-.66 4.29-1.32 6.93-1.65 6.93-.33 15.51-.33 15.84.33 1.65 1.65 2.97 3.3 2.97h.33c1.65-.33 2.97-1.98 2.97-3.63 0 0-.99-7.59.33-13.53 2.31-10.56 2.31-15.51 2.31-20.13v-2.97c.33-4.29.99-11.55 1.98-18.15.66-4.29.99-7.92 1.32-9.9 0-.99.33-2.64 1.65-3.3.66-.33 1.65-.66 2.31-.66-.33 2.64 0 5.61 0 8.25v1.98c-.66 7.92-.99 13.86-.99 29.7 0 13.86.33 21.12.33 21.45 0 1.65 1.65 3.3 3.3 3.3 1.98 0 3.3-1.65 3.3-3.3 0 0-.33-7.59-.33-21.12 0-15.51.33-21.78.99-29.04v-5.94c0-.33.33-.66.33-.99v-.99c0-.99.33-2.64 0-4.29.33-1.32.33-2.31.66-2.31 1.65-.99 3.3-1.32 4.62-.66.33 0 .99.66 1.32 2.64s.99 9.9 1.98 18.48c2.64 28.05 4.29 40.92 5.61 43.89.66 1.65 2.64 2.31 4.29 1.65s2.31-2.64 1.65-4.29c-.99-2.97-3.63-27.39-4.95-41.91-.99-9.24-1.65-16.83-1.98-19.14 0-.33 0-.33-.33-.66.66 0 1.32 0 1.98.33 1.98 1.98 4.95 13.53 5.28 15.84 0 1.65.99 4.29 3.63 11.22 1.32 3.3 2.64 6.6 2.97 8.58.33 1.65 5.28 21.45 6.93 29.04.33 1.65 1.65 2.64 3.3 2.64h.66c1.65-.33 2.97-2.31 2.31-3.96-.33-.99-6.27-27.39-6.93-29.37s-1.65-5.28-2.97-8.91c-1.32-3.3-2.97-8.25-3.3-9.24 0 0-.33-2.97-1.32-6.27.33-.33 1.32-.66 1.65-.66 2.31.66 4.95 6.27 5.61 7.92 0 .33 11.88 38.28 13.2 39.93.66 1.32 4.62 11.88 6.27 20.79 1.32 6.6-.33 21.45-3.96 30.69-2.97 6.93-2.64 15.51-2.64 22.44 0 3.3 0 6.27-.33 8.25-.33 1.65.99 3.63 2.64 3.96h.66c1.65 0 2.97-.99 3.3-2.64.33-2.64.33-5.94.33-9.57 0-6.27-.33-14.19 1.98-19.8 3.63-11.22 5.61-27.39 3.96-35.97"/></g><path fill="transparent" stroke="transparent" d="M524 0h452v250H524z"/></g></svg>